<svg xmlns="http://www.w3.org/2000/svg" viewBox="0 0 283.5 86.89"><defs><style>.cls-1{fill:#fff;}</style></defs><title>lelem-white</title><g id="Layer_2" data-name="Layer 2"><g id="Layer_1-2" data-name="Layer 1"><path class="cls-1" d="M15.11,0V85.78H0V0Z"/><path class="cls-1" d="M56.37,27.32q12.65,0,20,8.11t7.37,22.41v2.27H43.17q.92,7.68,5.74,11.82t13.23,4.14a29.45,29.45,0,0,0,10.41-1.87,45.47,45.47,0,0,0,10.35-5.68V79.76q-10.07,7.12-24.44,7.12-13.57,0-22.17-8.17T27.69,57q0-13.08,8-21.37T56.37,27.32ZM69.57,51Q69,44.7,65.76,41.17A11.24,11.24,0,0,0,57,37.64,12.6,12.6,0,0,0,47.8,41Q44.33,44.4,43.41,51Z"/><path class="cls-1" d="M111.2,0V85.78H96.1V0Z"/><path class="cls-1" d="M151.18,86.89q-12.65,0-20-8.11t-7.37-22.41V54.1h40.59q-.92-7.68-5.74-11.82T145.4,38.13A29.45,29.45,0,0,0,135,40a45.47,45.47,0,0,0-10.35,5.68V34.45q10.07-7.12,24.44-7.12,13.57,0,22.17,8.17t8.6,21.74q0,13.08-8,21.37T151.18,86.89ZM138,63.25q.61,6.26,3.81,9.79a11.24,11.24,0,0,0,8.78,3.53,12.6,12.6,0,0,0,9.18-3.38q3.47-3.38,4.39-9.95Z"/><path class="cls-1" d="M224.92,27.32a19.52,19.52,0,0,1,11.21,3.1A19,19,0,0,1,243,38.75a35.61,35.61,0,0,1,9.67-8.69,21.12,21.12,0,0,1,10.59-2.73q9.09,0,14.68,5.93t5.59,15.81V85.78H268.39V51.58q0-6-2.55-9.39a8.64,8.64,0,0,0-7.4-3.44q-6.94,0-13.32,8.9V85.78h-15V51.33q0-5.89-2.7-9.24a8.84,8.84,0,0,0-7.25-3.35,11.64,11.64,0,0,0-6.75,2.12,30.26,30.26,0,0,0-6.57,6.78V85.78H191.7V28.43h15.11v8a30.28,30.28,0,0,1,8.35-6.91A20.57,20.57,0,0,1,224.92,27.32Z"/><path class="cls-1" d="M241.46,2l8.9,18.36h-8.17L224.32,2Z"/><path class="cls-1" d="M15.11,0V85.78H0V0Z"/><path class="cls-1" d="M56.37,27.32q12.65,0,20,8.11t7.37,22.41v2.27H43.17q.92,7.68,5.74,11.82t13.23,4.14a29.45,29.45,0,0,0,10.41-1.87,45.47,45.47,0,0,0,10.35-5.68V79.76q-10.07,7.12-24.44,7.12-13.57,0-22.17-8.17T27.69,57q0-13.08,8-21.37T56.37,27.32ZM69.57,51Q69,44.7,65.76,41.17A11.24,11.24,0,0,0,57,37.64,12.6,12.6,0,0,0,47.8,41Q44.33,44.4,43.41,51Z"/><path class="cls-1" d="M111.2,0V85.78H96.1V0Z"/><path class="cls-1" d="M151.18,86.89q-12.65,0-20-8.11t-7.37-22.41V54.1h40.59q-.92-7.68-5.74-11.82T145.4,38.13A29.45,29.45,0,0,0,135,40a45.47,45.47,0,0,0-10.35,5.68V34.45q10.07-7.12,24.44-7.12,13.57,0,22.17,8.17t8.6,21.74q0,13.08-8,21.37T151.18,86.89ZM138,63.25q.61,6.26,3.81,9.79a11.24,11.24,0,0,0,8.78,3.53,12.6,12.6,0,0,0,9.18-3.38q3.47-3.38,4.39-9.95Z"/><path class="cls-1" d="M224.92,27.32a19.52,19.52,0,0,1,11.21,3.1A19,19,0,0,1,243,38.75a35.61,35.61,0,0,1,9.67-8.69,21.12,21.12,0,0,1,10.59-2.73q9.09,0,14.68,5.93t5.59,15.81V85.78H268.39V51.58q0-6-2.55-9.39a8.64,8.64,0,0,0-7.4-3.44q-6.94,0-13.32,8.9V85.78h-15V51.33q0-5.89-2.7-9.24a8.84,8.84,0,0,0-7.25-3.35,11.64,11.64,0,0,0-6.75,2.12,30.26,30.26,0,0,0-6.57,6.78V85.78H191.7V28.43h15.11v8a30.28,30.28,0,0,1,8.35-6.91A20.57,20.57,0,0,1,224.92,27.32Z"/><path class="cls-1" d="M241.46,2l8.9,18.36h-8.17L224.32,2Z"/></g></g></svg>